<mxfile host="app.diagrams.net" modified="2022-09-14T15:14:27.899Z" agent="5.0 (Windows NT 10.0; Win64; x64) AppleWebKit/537.36 (KHTML, like Gecko) Chrome/105.0.0.0 Safari/537.36" etag="8N9i0eCQTyjoXOYqFmiP" version="20.3.0" type="github">
  <diagram id="5uIQy-U7zvzVxpzJsxzf" name="Seite-1">
    <mxGraphModel dx="1896" dy="1219" grid="0" gridSize="10" guides="1" tooltips="1" connect="1" arrows="1" fold="1" page="1" pageScale="1" pageWidth="827" pageHeight="1169" math="0" shadow="0">
      <root>
        <mxCell id="0" />
        <mxCell id="1" parent="0" />
        <mxCell id="MhMh6x_6qjcn39ZoeqCB-1" value="&lt;b style=&quot;font-size: 23px;&quot;&gt;First rectangle&lt;/b&gt;" style="rounded=0;whiteSpace=wrap;html=1;fontColor=default;labelBackgroundColor=none;labelBorderColor=none;labelPosition=center;verticalLabelPosition=middle;align=center;verticalAlign=middle;horizontal=1;rotation=0;" vertex="1" parent="1">
          <mxGeometry x="354" y="550" width="120" height="70" as="geometry" />
        </mxCell>
      </root>
    </mxGraphModel>
  </diagram>
</mxfile>
